<?xml version="1.0" encoding="UTF-8" standalone="no"?>
<svg width="375px" height="169px" viewBox="0 0 375 169" version="1.1" xmlns="http://www.w3.org/2000/svg" xmlns:xlink="http://www.w3.org/1999/xlink">
    <!-- Generator: Sketch 3.8.3 (29802) - http://www.bohemiancoding.com/sketch -->
    <title>Group 2</title>
    <desc>Created with Sketch.</desc>
    <defs></defs>
    <g id="Page-1" stroke="none" stroke-width="1" fill="none" fill-rule="evenodd">
        <g id="Desktop" transform="translate(-547.000000, -1469.000000)">
            <g id="Group-2" transform="translate(549.000000, 1479.000000)">
                <g id="Group">
                    <path d="M12.9103321,90.0667444 C12.9103321,127.752761 43.5600472,158.414293 81.232983,158.414293 C118.907679,158.414293 149.556808,127.752761 149.556808,90.0667444 C149.556808,52.3807278 118.907679,21.7203704 81.232983,21.7203704 C43.5600472,21.7203704 12.9103321,52.3807278 12.9103321,90.0667444 L12.9103321,90.0667444 Z" id="Path" fill="#9D0D2B"></path>
                    <path d="M18.1918315,90.2962759 C18.1918315,55.396337 46.5751966,27.0037037 81.461848,27.0037037 C116.349673,27.0037037 144.733038,55.396337 144.733038,90.2962759 C144.733038,125.196215 116.349673,153.589435 81.461848,153.589435 C46.5751966,153.589435 18.1918315,125.196215 18.1918315,90.2962759 L18.1918315,90.2962759 Z" id="Fill-453" fill="#FFFFFF"></path>
                    <path d="M81.310445,30.5259259 C48.4460211,30.5259259 21.7128312,57.2683981 21.7128312,90.1442333 C21.7128312,123.019481 48.4460211,149.767237 81.310445,149.767237 C114.174282,149.767237 140.907472,123.019481 140.907472,90.1442333 C140.907472,57.2683981 114.174282,30.5259259 81.310445,30.5259259" id="Fill-454" fill="#9D0D2B"></path>
                    <path d="M0,48.4047259 C0,48.4047259 48.9031642,49.9492204 79.7887863,78.2714093 C79.7887863,78.2714093 119.939919,24.2176259 181.71175,0 C181.71175,0 108.100558,58.7447963 82.362637,125.409309 C82.362637,125.409309 62.8017235,74.1521704 0,48.4047259" id="Fill-3" stroke="#9D0D2B" stroke-width="6" fill="#FFFFFF"></path>
                </g>
                <path d="M179.93291,71 L179.93291,39.625101 L192.924769,39.625101 C194.279936,39.625101 195.524609,39.9123331 196.658824,40.4868059 C197.79304,41.0612788 198.772575,41.8125013 199.597459,42.7404959 C200.422343,43.6684905 201.070457,44.7216749 201.541819,45.9000808 C202.013182,47.0784866 202.248859,48.2716047 202.248859,49.4794707 C202.248859,50.7757171 202.027911,52.0203896 201.586009,53.2135256 C201.144107,54.4066615 200.525453,55.4598459 199.730029,56.3731105 C198.934605,57.286375 197.98453,58.0228676 196.879774,58.5826104 C195.775019,59.1423532 194.545076,59.4222204 193.189909,59.4222204 L183.02621,59.4222204 L183.02621,71 L179.93291,71 Z M183.02621,56.6824404 L193.057339,56.6824404 C193.970604,56.6824404 194.802841,56.4835874 195.554074,56.0858755 C196.305308,55.6881635 196.946057,55.1578888 197.476339,54.4950355 C198.006622,53.8321822 198.419058,53.0662299 198.713659,52.1971556 C199.008261,51.3280813 199.155559,50.4221954 199.155559,49.4794707 C199.155559,48.5072858 198.986166,47.5866701 198.647374,46.7175958 C198.308583,45.8485214 197.851957,45.089934 197.277484,44.4418108 C196.703011,43.7936876 196.025438,43.2855077 195.244744,42.9172559 C194.464051,42.549004 193.646544,42.3648809 192.792199,42.3648809 L183.02621,42.3648809 L183.02621,56.6824404 Z M208.25657,71 L208.25657,39.625101 L221.513569,39.625101 C222.868736,39.625101 224.113409,39.9123331 225.247624,40.4868059 C226.38184,41.0612788 227.361375,41.8125013 228.186259,42.7404959 C229.011143,43.6684905 229.651892,44.7216749 230.108524,45.9000808 C230.565156,47.0784866 230.793469,48.2716047 230.793469,49.4794707 C230.793469,50.6284164 230.624076,51.7257904 230.285284,52.7716256 C229.946492,53.8174608 229.475137,54.7601713 228.871204,55.5997855 C228.267271,56.4393997 227.538144,57.1464326 226.683799,57.7209054 C225.829455,58.2953783 224.872015,58.6857194 223.811449,58.8919404 L231.500509,71 L228.009499,71 L220.629769,59.4222204 L211.34987,59.4222204 L211.34987,71 L208.25657,71 Z M211.34987,56.6824404 L221.601949,56.6824404 C222.515214,56.6824404 223.347451,56.4835874 224.098684,56.0858755 C224.849918,55.6881635 225.490667,55.1505239 226.020949,54.4729405 C226.551232,53.7953571 226.963668,53.0294048 227.258269,52.1750606 C227.552871,51.3207163 227.700169,50.4221954 227.700169,49.4794707 C227.700169,48.536746 227.530776,47.6308601 227.191984,46.7617858 C226.853193,45.8927114 226.396567,45.134124 225.822094,44.4860008 C225.247621,43.8378776 224.570048,43.3223328 223.789354,42.9393509 C223.008661,42.556369 222.191154,42.3648809 221.336809,42.3648809 L211.34987,42.3648809 L211.34987,56.6824404 Z M250.588459,71.22095 C248.408409,71.22095 246.412514,70.7716895 244.600715,69.873155 C242.788916,68.9746206 241.234916,67.7815025 239.93867,66.2937651 C238.642423,64.8060278 237.640793,63.1047298 236.93375,61.1898203 C236.226706,59.2749108 235.87319,57.3158404 235.87319,55.3125505 C235.87319,53.2208801 236.248801,51.2176202 237.000035,49.3027107 C237.751269,47.3878012 238.789723,45.6938682 240.11543,44.2208608 C241.441136,42.7478535 243.002501,41.5768303 244.79957,40.7077559 C246.596639,39.8386816 248.540979,39.404151 250.632649,39.404151 C252.8127,39.404151 254.808595,39.8681413 256.620394,40.7961359 C258.432193,41.7241305 259.978828,42.9393434 261.260344,44.4418108 C262.54186,45.9442783 263.536125,47.6455762 264.243169,49.5457557 C264.950213,51.4459351 265.303729,53.3829107 265.303729,55.3567405 C265.303729,57.4484109 264.928118,59.4516708 264.176884,61.3665803 C263.42565,63.2814898 262.394561,64.9680579 261.083584,66.4263351 C259.772608,67.8846124 258.218608,69.0482707 256.421539,69.917345 C254.62447,70.7864194 252.68013,71.22095 250.588459,71.22095 L250.588459,71.22095 Z M238.96649,55.3125505 C238.96649,57.021239 239.246357,58.6636175 239.8061,60.2397353 C240.365843,61.8158532 241.161255,63.2151891 242.19236,64.4377852 C243.223465,65.6603813 244.446043,66.6325515 245.86013,67.3543251 C247.274217,68.0760987 248.850311,68.4369801 250.588459,68.4369801 C252.356068,68.4369801 253.961622,68.0540039 255.405169,67.2880401 C256.848716,66.5220763 258.071294,65.5204464 259.072939,64.2831202 C260.074584,63.0457941 260.847901,61.6464581 261.392914,60.0850703 C261.937927,58.5236826 262.210429,56.9328585 262.210429,55.3125505 C262.210429,53.603862 261.923197,51.9614835 261.348724,50.3853656 C260.774251,48.8092478 259.971474,47.4172768 258.940369,46.2094108 C257.909264,45.0015448 256.686686,44.0367394 255.272599,43.3149659 C253.858512,42.5931923 252.297148,42.2323109 250.588459,42.2323109 C248.820851,42.2323109 247.215297,42.6079221 245.77175,43.3591559 C244.328202,44.1103896 243.105625,45.1046546 242.10398,46.3419808 C241.102335,47.5793069 240.329017,48.9786429 239.784005,50.5400306 C239.238992,52.1014184 238.96649,53.6922424 238.96649,55.3125505 L238.96649,55.3125505 Z M267.99719,67.0670901 C268.645313,67.5089923 269.47755,67.8919685 270.493925,68.2160301 C271.5103,68.5400917 272.651863,68.7021201 273.91865,68.7021201 C275.509497,68.7021201 276.78363,68.414888 277.741084,67.8404151 C278.698539,67.2659422 279.427667,66.4189757 279.928489,65.2994902 C280.429312,64.1800046 280.753369,62.8027634 280.900669,61.1677253 C281.04797,59.5326872 281.121619,57.6693609 281.121619,55.5776905 L281.121619,39.625101 L284.214919,39.625101 L284.214919,55.5776905 C284.214919,57.9639623 284.104445,60.1366155 283.883494,62.0957153 C283.662543,64.054815 283.198553,65.7266532 282.491509,67.1112801 C281.784466,68.495907 280.753376,69.5711862 279.398209,70.33715 C278.043043,71.1031138 276.216541,71.48609 273.91865,71.48609 C271.267236,71.48609 268.998839,70.8379765 267.11339,69.54173 L267.99719,67.0670901 Z M313.599139,68.2602201 L313.599139,71 L292.52051,71 L292.52051,39.625101 L313.201429,39.625101 L313.201429,42.3648809 L295.61381,42.3648809 L295.61381,53.6775205 L310.947739,53.6775205 L310.947739,56.2847305 L295.61381,56.2847305 L295.61381,68.2602201 L313.599139,68.2602201 Z M317.52992,55.0916005 C317.52992,53.2061511 317.861342,51.328095 318.524195,49.4573757 C319.187048,47.5866564 320.151854,45.9148181 321.41864,44.4418108 C322.685426,42.9688035 324.24679,41.7683205 326.10278,40.8403259 C327.958769,39.9123313 330.065138,39.448341 332.421949,39.448341 C335.220663,39.448341 337.614264,40.0817246 339.602824,41.3485109 C341.591384,42.6152972 343.057004,44.2650407 343.999729,46.2977908 L341.569279,47.8002507 C341.068457,46.7691456 340.457168,45.9000843 339.735394,45.1930408 C339.013621,44.4859973 338.240303,43.9115331 337.415419,43.4696309 C336.590535,43.0277287 335.736204,42.7110368 334.852399,42.5195459 C333.968595,42.3280549 333.099534,42.2323109 332.245189,42.2323109 C330.35974,42.2323109 328.695267,42.6152871 327.25172,43.3812509 C325.808172,44.1472147 324.59296,45.1488446 323.606045,46.3861708 C322.61913,47.6234969 321.875272,49.0154679 321.37445,50.5621256 C320.873627,52.1087833 320.62322,53.6775126 320.62322,55.2683605 C320.62322,57.0065091 320.925182,58.6709824 321.529115,60.2618303 C322.133048,61.8526782 322.95792,63.2593791 324.003755,64.4819752 C325.04959,65.7045713 326.286898,66.6767415 327.715715,67.3985151 C329.144532,68.1202887 330.698531,68.4811701 332.377759,68.4811701 C333.261564,68.4811701 334.16745,68.3706962 335.095444,68.1497451 C336.023439,67.928794 336.92196,67.5752775 337.791034,67.0891851 C338.660109,66.6030927 339.462886,65.9991688 340.199389,65.2773952 C340.935893,64.5556216 341.554547,63.6791954 342.055369,62.6480903 L344.618389,63.9737902 C344.117567,65.1521961 343.410534,66.1906507 342.497269,67.0891851 C341.584005,67.9877196 340.567645,68.746307 339.448159,69.3649701 C338.328674,69.9836331 337.142921,70.4549884 335.890864,70.77905 C334.638808,71.1031116 333.408865,71.26514 332.200999,71.26514 C330.050409,71.26514 328.076609,70.7937847 326.27954,69.85106 C324.482471,68.9083354 322.935836,67.6783927 321.63959,66.1611952 C320.343343,64.6439976 319.334348,62.9206049 318.612575,60.9909653 C317.890801,59.0613257 317.52992,57.0948904 317.52992,55.0916005 L317.52992,55.0916005 Z M372.721099,42.3648809 L361.541029,42.3648809 L361.541029,71 L358.44773,71 L358.44773,42.3648809 L347.26766,42.3648809 L347.26766,39.625101 L372.721099,39.625101 L372.721099,42.3648809 Z" id="PROJECT" fill="#9D0D2B"></path>
                <g id="Group" transform="translate(234.000000, 76.500000)" fill="#24346D">
                    <polygon id="Fill-239" points="0 14.9894515 26.4023412 14.9894515 26.4023412 13.2320675 0 13.2320675"></polygon>
                    <path d="M26.4023412,13.2833418 L26.4023412,14.1616203 L0.472727003,14.1616203 L0.472727003,13.2833418 L26.4023412,13.2833418 L26.4023412,13.2833418 Z M0,15.0398987 L26.8750682,15.0398987 L26.8750682,12.4050633 L0,12.4050633 L0,15.0398987 Z" id="Fill-240"></path>
                    <polygon id="Fill-241" points="55.4688427 14.9894515 81.8720119 14.9894515 81.8720119 13.2320675 55.4688427 13.2320675"></polygon>
                    <path d="M81.8720119,13.2833418 L81.8720119,14.1616203 L55.9423976,14.1616203 L55.9423976,13.2833418 L81.8720119,13.2833418 L81.8720119,13.2833418 Z M55.4688427,15.0398987 L82.3447389,15.0398987 L82.3447389,12.4050633 L55.4688427,12.4050633 L55.4688427,15.0398987 Z" id="Fill-242"></path>
                    <polygon id="Fill-243" points="53.6218131 7.54972152 44.2641365 7.54972152 41.299451 0 38.3355935 7.54972152 28.9762611 7.54972152 36.4297834 12.4075443 33.0809555 20.9339578 41.299451 15.5807595 49.5171187 20.9339578 46.1699466 12.4075443"></polygon>
                </g>
                <path d="M177.74603,103.937831 L199.359049,103.937831 C201.341039,103.937831 203.102782,104.03221 204.644329,104.220971 C206.185877,104.409732 207.475724,104.810843 208.513909,105.424316 C209.552094,106.037789 210.338586,106.926525 210.873409,108.090551 C211.408232,109.254577 211.675639,110.796101 211.675639,112.715171 C211.675639,113.942117 211.510476,114.988151 211.180144,115.853306 C210.849812,116.71846 210.385782,117.442033 209.788039,118.024046 C209.190296,118.606059 208.474588,119.070089 207.640894,119.416151 C206.8072,119.762212 205.902734,120.01389 204.927469,120.171191 C207.790343,120.422872 210.016116,121.225094 211.604854,122.57788 C213.193592,123.930667 213.987949,125.928357 213.987949,128.57101 C213.987949,130.58446 213.759866,132.259689 213.303694,133.596745 C212.847522,134.933802 212.092489,136.003431 211.038574,136.805665 C209.984659,137.607899 208.600433,138.174173 206.885854,138.504505 C205.171276,138.834837 203.055612,139 200.538799,139 L177.74603,139 L177.74603,134.04505 C180.545984,134.04505 181.94594,133.321477 181.94594,131.87431 L181.94594,111.535421 C181.94594,110.088254 180.545984,109.364681 177.74603,109.364681 L177.74603,103.937831 Z M193.885009,132.8653 L197.188309,132.8653 C198.100654,132.8653 198.847821,132.739461 199.429834,132.48778 C200.011847,132.236099 200.468013,131.890042 200.798344,131.4496 C201.128676,131.009158 201.356759,130.497938 201.482599,129.915925 C201.60844,129.333912 201.671359,128.712584 201.671359,128.05192 C201.671359,127.296877 201.60844,126.612628 201.482599,125.999155 C201.356759,125.385682 201.128676,124.858733 200.798344,124.41829 C200.468013,123.977848 200.011847,123.639657 199.429834,123.403705 C198.847821,123.167754 198.100654,123.04978 197.188309,123.04978 L193.885009,123.04978 L193.885009,132.8653 Z M193.885009,118.236401 L195.961369,118.236401 C196.747873,118.236401 197.377067,118.134157 197.848969,117.929666 C198.320872,117.725175 198.682658,117.426308 198.934339,117.033056 C199.186021,116.639804 199.351184,116.144314 199.429834,115.546571 C199.508485,114.948828 199.547809,114.256715 199.547809,113.470211 C199.547809,112.557866 199.280402,111.842158 198.745579,111.323066 C198.210757,110.803973 197.282696,110.544431 195.961369,110.544431 L193.885009,110.544431 L193.885009,118.236401 Z M216.628315,134.04505 C218.044022,134.04505 219.035002,133.927076 219.601285,133.691125 C220.167567,133.455174 220.545084,133.116982 220.733844,132.67654 L230.077464,103.937831 L242.252484,103.937831 L250.935444,132.62935 C251.312965,133.573155 252.571353,134.04505 254.710643,134.04505 L254.710643,139 L234.135804,139 L234.135804,134.04505 L237.250344,134.04505 C238.162689,134.04505 238.618854,133.777643 238.618854,133.24282 C238.618854,133.14844 238.603124,133.054061 238.571664,132.95968 C238.540204,132.8653 238.508744,132.755191 238.477284,132.62935 L237.769434,130.12828 L226.726974,130.12828 L226.066314,132.25183 C225.971934,132.503511 225.924744,132.723729 225.924744,132.91249 C225.924744,133.667534 226.632587,134.04505 228.048294,134.04505 L230.549364,134.04505 L230.549364,139 L216.675505,139 L216.628315,134.04505 Z M228.189864,125.3149 L236.448114,125.3149 L232.578534,111.157901 L228.189864,125.3149 Z M289.251448,115.263431 L283.918978,115.688141 C283.698757,114.461195 283.289781,113.438755 282.692038,112.620791 C282.094295,111.802827 281.347128,111.150038 280.450514,110.662406 C279.553899,110.174773 278.515729,109.820852 277.335974,109.600631 C276.156218,109.38041 274.889965,109.270301 273.537179,109.270301 C272.813595,109.270301 272.137212,109.309625 271.508009,109.388276 C270.878806,109.466926 270.328261,109.608495 269.856359,109.812986 C269.384456,110.017477 269.00694,110.308479 268.723799,110.686001 C268.440657,111.063523 268.299089,111.535418 268.299089,112.101701 C268.299089,112.982585 268.786714,113.651103 269.761979,114.107276 C270.737244,114.563448 271.979901,114.948829 273.489989,115.263431 C275.000076,115.578032 276.675304,115.892629 278.515724,116.207231 C280.356143,116.521832 282.14148,116.977998 283.871788,117.575741 C286.357141,118.425165 288.236857,119.691417 289.510993,121.374536 C290.78513,123.057654 291.422188,125.314886 291.422188,128.1463 C291.422188,130.00245 291.083997,131.646218 290.407603,133.077655 C289.73121,134.509092 288.795284,135.72029 287.599798,136.711285 C286.404312,137.70228 284.996491,138.457312 283.376293,138.976405 C281.756095,139.495498 280.002218,139.75504 278.114609,139.75504 C276.195539,139.75504 274.606825,139.629201 273.348419,139.37752 C272.090012,139.125839 271.043978,138.842702 270.210284,138.5281 C269.37659,138.213498 268.676612,137.930361 268.110329,137.67868 C267.544046,137.426999 267.009231,137.30116 266.505869,137.30116 C266.065427,137.30116 265.680046,137.426999 265.349714,137.67868 C265.019382,137.930361 264.72838,138.370797 264.476699,139 L259.144229,139 L259.144229,126.96655 L264.476699,126.68341 C264.66546,129.137303 265.766549,130.899045 267.779999,131.96869 C269.793449,133.038336 272.451792,133.57315 275.755109,133.57315 C277.642718,133.57315 279.144918,133.321473 280.261754,132.81811 C281.378589,132.314748 281.936998,131.339497 281.936998,129.89233 C281.936998,129.011446 281.520158,128.342928 280.686463,127.886755 C279.852769,127.430583 278.775275,127.060932 277.453949,126.77779 C276.132622,126.494649 274.654017,126.235107 273.018089,125.999155 C271.382161,125.763204 269.761987,125.425013 268.157519,124.98457 C266.39575,124.481208 264.932875,123.875609 263.768849,123.167755 C262.604823,122.459902 261.676763,121.634085 260.984639,120.690281 C260.292516,119.746476 259.804891,118.668982 259.521749,117.457766 C259.238608,116.24655 259.097039,114.885918 259.097039,113.375831 C259.097039,111.991584 259.332987,110.678142 259.804889,109.435466 C260.276791,108.19279 261.000364,107.107431 261.975629,106.179356 C262.950894,105.251281 264.177822,104.519844 265.656449,103.985021 C267.135076,103.450198 268.896819,103.182791 270.941729,103.182791 C272.766418,103.182791 274.284348,103.300765 275.495564,103.536716 C276.70678,103.772667 277.71349,104.040075 278.515724,104.338946 C279.317958,104.637817 279.978611,104.905225 280.497704,105.141176 C281.016796,105.377127 281.496556,105.495101 281.936998,105.495101 C282.566202,105.495101 283.061692,105.377127 283.423483,105.141176 C283.785275,104.905225 284.154927,104.504114 284.532448,103.937831 L289.251448,103.937831 L289.251448,115.263431 Z M329.738193,114.555581 L323.603493,114.791531 C323.603493,111.488214 322.109158,109.836581 319.120443,109.836581 L311.947563,109.836581 L311.947563,118.236401 L313.740783,118.236401 C314.810429,118.236401 315.486812,116.600497 315.769953,113.328641 L321.055233,113.328641 L320.347383,128.05192 L315.156483,128.05192 C314.810422,124.654223 314.228417,122.9554 313.410453,122.9554 L311.947563,122.9554 L311.947563,133.10125 L317.421603,133.10125 C322.077706,133.10125 324.484372,130.474367 324.641673,125.22052 L330.870753,125.55085 L329.738193,139 L295.808584,139 L295.808584,134.04505 C298.608538,134.04505 300.008494,133.321477 300.008494,131.87431 L300.008494,111.063521 C300.008494,109.616354 298.608538,108.892781 295.808584,108.892781 L295.808584,103.937831 L329.738193,103.937831 L329.738193,114.555581 Z M335.681858,103.937831 L355.076948,103.937831 C358.191503,103.937831 360.849847,104.134454 363.052058,104.527706 C365.254269,104.920958 367.047471,105.70745 368.431717,106.887206 C369.815964,108.066962 370.830539,109.74219 371.475472,111.912941 C372.120406,114.083692 372.442867,116.962253 372.442867,120.548711 C372.442867,124.292469 372.120406,127.359788 371.475472,129.75076 C370.830539,132.141732 369.815964,134.021448 368.431717,135.389965 C367.047471,136.758482 365.254269,137.702272 363.052058,138.221365 C360.849847,138.740458 358.191503,139 355.076948,139 L335.681858,139 L335.681858,134.04505 C338.481812,134.04505 339.881768,133.321477 339.881768,131.87431 L339.881768,111.063521 C339.881768,109.616354 338.481812,108.892781 335.681858,108.892781 L335.681858,103.937831 Z M351.820838,133.10125 L355.831988,133.10125 C356.870173,133.10125 357.688125,132.896762 358.285868,132.48778 C358.883611,132.078798 359.324046,131.386685 359.607188,130.41142 C359.890329,129.436155 360.071222,128.154173 360.149873,126.565435 C360.228523,124.976697 360.267848,123.018332 360.267848,120.690281 C360.267848,118.362229 360.228523,116.482513 360.149873,115.051076 C360.071222,113.619639 359.890329,112.51855 359.607188,111.747776 C359.324046,110.977002 358.883611,110.465782 358.285868,110.214101 C357.688125,109.96242 356.870173,109.836581 355.831988,109.836581 L351.820838,109.836581 L351.820838,133.10125 Z" id="BASED" fill="#24346D"></path>
            </g>
        </g>
    </g>
</svg>