<svg width="375" height="169" viewBox="0 0 375 169" version="1.1" xmlns="http://www.w3.org/2000/svg"><title>Group 2</title><g id="Page-1" stroke="none" stroke-width="1" fill="none" fill-rule="evenodd"><g id="Desktop"><g id="Group-2"><g id="Group"><path d="M14.91 100.067c0 37.686 30.65 68.347 68.323 68.347 37.675 0 68.324-30.66 68.324-68.347 0-37.686-30.65-68.347-68.324-68.347-37.673 0-68.323 30.66-68.323 68.347z" id="Path" fill="#9D0D2B"/><path d="M20.192 100.296c0-34.9 28.383-63.292 63.27-63.292 34.888 0 63.27 28.392 63.27 63.292 0 34.9-28.382 63.293-63.27 63.293-34.887 0-63.27-28.394-63.27-63.294z" id="Fill-453" fill="#FFF"/><path d="M83.31 40.526c-32.864 0-59.597 26.742-59.597 59.618 0 32.875 26.733 59.623 59.597 59.623 32.864 0 59.597-26.748 59.597-59.623 0-32.876-26.733-59.618-59.597-59.618" id="Fill-454" fill="#9D0D2B"/><path d="M2 58.405S50.903 59.95 81.79 88.27c0 0 40.15-54.052 101.922-78.27 0 0-73.61 58.745-99.35 125.41 0 0-19.56-51.258-82.362-77.005" id="Fill-3" stroke="#9D0D2B" stroke-width="6" fill="#FFF"/></g><path d="M181.933 81V49.625h12.992c1.355 0 2.6.287 3.734.862a9.84 9.84 0 0 1 2.937 2.253c.825.928 1.473 1.982 1.945 3.16a9.565 9.565 0 0 1 .707 3.58c0 1.296-.222 2.54-.664 3.734a10.105 10.105 0 0 1-1.856 3.16 9.333 9.333 0 0 1-2.85 2.21c-1.105.558-2.335.838-3.69.838h-10.164V81h-3.093zm3.093-14.318h10.03c.915 0 1.747-.198 2.498-.596a6.078 6.078 0 0 0 1.922-1.59 7.49 7.49 0 0 0 1.238-2.3c.294-.868.442-1.774.442-2.717 0-.973-.17-1.893-.51-2.762a7.502 7.502 0 0 0-1.37-2.276 6.256 6.256 0 0 0-2.03-1.525 5.682 5.682 0 0 0-2.454-.552h-9.766v14.317zM210.256 81V49.625h13.258c1.355 0 2.6.287 3.734.862a9.84 9.84 0 0 1 2.938 2.253c.825.928 1.466 1.982 1.923 3.16a9.834 9.834 0 0 1 .683 3.58c0 1.148-.17 2.246-.508 3.292-.34 1.045-.81 1.988-1.414 2.828a8.555 8.555 0 0 1-2.186 2.12 7.735 7.735 0 0 1-2.873 1.172L233.5 81h-3.49l-7.38-11.578h-9.28V81h-3.093zm3.094-14.318h10.252c.913 0 1.745-.198 2.497-.596a5.956 5.956 0 0 0 1.92-1.613 7.847 7.847 0 0 0 1.238-2.298 8.21 8.21 0 0 0 .442-2.696c0-.943-.17-1.85-.508-2.718a7.502 7.502 0 0 0-1.37-2.276 6.538 6.538 0 0 0-2.033-1.547 5.5 5.5 0 0 0-2.453-.575h-9.987v14.317zm39.238 14.54c-2.18 0-4.175-.45-5.987-1.35a14.885 14.885 0 0 1-4.66-3.578 16.275 16.275 0 0 1-3.006-5.104 16.843 16.843 0 0 1-1.06-5.877c0-2.092.375-4.095 1.126-6.01.75-1.915 1.79-3.61 3.115-5.082a15.063 15.063 0 0 1 4.685-3.512c1.797-.87 3.74-1.304 5.833-1.304 2.18 0 4.176.464 5.987 1.392a15.038 15.038 0 0 1 4.64 3.646 16.85 16.85 0 0 1 2.983 5.104c.707 1.9 1.06 3.837 1.06 5.81a16.31 16.31 0 0 1-1.126 6.01c-.75 1.915-1.782 3.602-3.093 5.06a14.962 14.962 0 0 1-4.662 3.49c-1.798.87-3.742 1.305-5.834 1.305zm-11.622-15.91c0 1.71.28 3.352.84 4.928a13.406 13.406 0 0 0 2.386 4.198 11.73 11.73 0 0 0 3.668 2.916c1.414.722 2.99 1.083 4.728 1.083 1.768 0 3.374-.383 4.817-1.15a11.745 11.745 0 0 0 3.668-3.004 13.885 13.885 0 0 0 2.32-4.198c.545-1.56.817-3.152.817-4.772 0-1.71-.287-3.352-.86-4.928-.576-1.576-1.38-2.968-2.41-4.176a11.875 11.875 0 0 0-3.667-2.895c-1.414-.722-2.976-1.083-4.685-1.083-1.767 0-3.373.376-4.816 1.127a11.48 11.48 0 0 0-3.668 2.982 13.885 13.885 0 0 0-2.32 4.198 14.386 14.386 0 0 0-.818 4.773zm29.03 11.755c.65.442 1.482.825 2.498 1.15 1.016.323 2.158.485 3.425.485 1.59 0 2.864-.287 3.82-.862.96-.574 1.688-1.42 2.188-2.54.5-1.12.825-2.497.973-4.132.148-1.635.222-3.5.222-5.59V49.625h3.093v15.953c0 2.386-.11 4.56-.332 6.518-.22 1.96-.684 3.63-1.39 5.015a7.6 7.6 0 0 1-3.095 3.227c-1.355.766-3.18 1.15-5.48 1.15-2.65 0-4.92-.65-6.805-1.945l.884-2.475zM315.6 78.26V81h-21.08V49.625h20.68v2.74h-17.586v11.313h15.334v2.607h-15.334V78.26H315.6zm3.93-13.168c0-1.886.33-3.764.994-5.635a15.62 15.62 0 0 1 2.895-5.015c1.265-1.473 2.827-2.674 4.683-3.602 1.856-.928 3.962-1.392 6.32-1.392 2.798 0 5.19.634 7.18 1.9 1.988 1.267 3.454 2.917 4.397 4.95l-2.43 1.502c-.502-1.03-1.113-1.9-1.835-2.607a10.197 10.197 0 0 0-2.32-1.723 9.803 9.803 0 0 0-2.563-.95 12.29 12.29 0 0 0-2.607-.288c-1.885 0-3.55.383-4.993 1.15a11.495 11.495 0 0 0-3.646 3.004 13.114 13.114 0 0 0-2.232 4.176 15.19 15.19 0 0 0-.75 4.706c0 1.74.3 3.403.905 4.994.603 1.59 1.428 2.997 2.474 4.22a11.9 11.9 0 0 0 3.712 2.917c1.43.72 2.983 1.08 4.662 1.08.884 0 1.79-.11 2.717-.33.928-.22 1.827-.575 2.696-1.06.87-.487 1.673-1.09 2.41-1.813.736-.72 1.355-1.598 1.855-2.63l2.563 1.327a9.593 9.593 0 0 1-2.12 3.115c-.914.898-1.93 1.656-3.05 2.275-1.12.62-2.305 1.09-3.557 1.414a14.688 14.688 0 0 1-3.69.485c-2.15 0-4.123-.47-5.92-1.414a15.53 15.53 0 0 1-4.64-3.69 17.123 17.123 0 0 1-3.027-5.17 16.716 16.716 0 0 1-1.083-5.898zm55.19-12.727h-11.18V81h-3.092V52.365h-11.18v-2.74h25.453v2.74z" id="PROJECT" fill="#9D0D2B"/><g id="Group" fill="#24346D"><path id="Fill-239" d="M236 101.49h26.402V99.73H236z"/><path d="M262.402 99.783v.88h-25.93v-.88h25.93zM236 101.54h26.875v-2.635H236v2.635z" id="Fill-240"/><path id="Fill-241" d="M291.47 101.49h26.402V99.73H291.47z"/><path d="M317.872 99.783v.88h-25.93v-.88h25.93zm-26.403 1.757h26.875v-2.635H291.47v2.635z" id="Fill-242"/><path id="Fill-243" d="M289.622 94.05h-9.358L277.3 86.5l-2.964 7.55h-9.36l7.454 4.858-3.35 8.526 8.22-5.353 8.217 5.354-3.347-8.526z"/></g><path d="M179.746 113.938h21.613c1.98 0 3.743.094 5.284.283 1.542.19 2.832.59 3.87 1.204 1.038.614 1.825 1.503 2.36 2.667.534 1.165.802 2.706.802 4.625 0 1.227-.166 2.273-.496 3.138-.33.865-.794 1.59-1.392 2.17a6.747 6.747 0 0 1-2.147 1.393c-.833.346-1.737.598-2.713.755 2.863.253 5.09 1.055 6.678 2.408 1.59 1.353 2.383 3.35 2.383 5.993 0 2.014-.228 3.69-.684 5.027-.456 1.337-1.212 2.406-2.265 3.21-1.055.8-2.44 1.367-4.154 1.698-1.715.33-3.83.495-6.347.495h-22.794v-4.955c2.8 0 4.2-.724 4.2-2.17v-20.34c0-1.447-1.4-2.17-4.2-2.17v-5.427zm16.14 28.927h3.302c.913 0 1.66-.126 2.242-.377.582-.252 1.038-.598 1.368-1.038.33-.44.56-.952.685-1.534.125-.582.188-1.203.188-1.864 0-.755-.062-1.44-.187-2.053-.126-.614-.354-1.14-.685-1.582-.33-.44-.786-.778-1.368-1.014-.582-.236-1.33-.354-2.242-.354h-3.303v9.815zm0-14.63h2.075c.788 0 1.417-.1 1.89-.305.47-.205.833-.504 1.084-.897.252-.393.417-.89.496-1.486.078-.598.118-1.29.118-2.077 0-.912-.268-1.628-.802-2.147-.535-.52-1.463-.78-2.785-.78h-2.075v7.693zm22.742 15.81c1.416 0 2.407-.118 2.973-.354.568-.235.945-.573 1.134-1.013l9.343-28.74h12.175l8.683 28.692c.378.943 1.636 1.415 3.776 1.415V149h-20.574v-4.955h3.114c.913 0 1.37-.267 1.37-.802a.89.89 0 0 0-.048-.283 4.534 4.534 0 0 1-.095-.33l-.708-2.502h-11.043l-.66 2.124a1.923 1.923 0 0 0-.142.66c0 .756.708 1.133 2.123 1.133h2.5V149h-13.872l-.048-4.955zm11.562-8.73h8.258l-3.87-14.157-4.388 14.157zm61.06-10.052l-5.33.425c-.22-1.227-.63-2.25-1.228-3.067a6.714 6.714 0 0 0-2.24-1.958c-.898-.487-1.936-.84-3.116-1.06-1.18-.222-2.446-.332-3.8-.332-.722 0-1.4.04-2.028.118-.63.08-1.18.22-1.652.425-.472.204-.85.495-1.132.873-.283.378-.425.85-.425 1.416 0 .88.487 1.55 1.462 2.005.975.456 2.218.842 3.728 1.156 1.51.315 3.185.63 5.026.944 1.84.315 3.625.77 5.356 1.37 2.485.848 4.365 2.114 5.64 3.798 1.273 1.683 1.91 3.94 1.91 6.77 0 1.857-.338 3.5-1.014 4.933a10.463 10.463 0 0 1-2.808 3.633c-1.196.992-2.604 1.747-4.224 2.266-1.62.52-3.374.78-5.26.78-1.92 0-3.51-.127-4.768-.378-1.258-.252-2.304-.535-3.138-.85a40.458 40.458 0 0 1-2.1-.85c-.566-.25-1.1-.377-1.604-.377-.44 0-.826.127-1.156.38-.33.25-.622.69-.873 1.32h-5.333v-12.033l5.333-.284c.188 2.454 1.29 4.216 3.303 5.286 2.013 1.068 4.672 1.603 7.975 1.603 1.888 0 3.39-.252 4.507-.755 1.117-.503 1.675-1.48 1.675-2.926 0-.88-.417-1.55-1.25-2.005-.834-.456-1.912-.826-3.233-1.11-1.32-.282-2.8-.542-4.436-.778a39.816 39.816 0 0 1-4.86-1.015c-1.762-.504-3.225-1.11-4.39-1.817-1.163-.708-2.09-1.534-2.783-2.478a8.78 8.78 0 0 1-1.463-3.232c-.283-1.21-.425-2.572-.425-4.082 0-1.384.236-2.698.708-3.94a8.715 8.715 0 0 1 2.17-3.257c.976-.93 2.203-1.66 3.68-2.195 1.48-.535 3.242-.802 5.287-.802 1.824 0 3.342.118 4.554.354 1.21.236 2.217.503 3.02.802.802.298 1.463.565 1.982.8.52.237 1 .355 1.44.355.628 0 1.124-.118 1.485-.354.362-.235.732-.636 1.11-1.202h4.718v11.325zm40.488-.707l-6.135.236c0-3.304-1.494-4.955-4.483-4.955h-7.172v8.4h1.793c1.07 0 1.747-1.637 2.03-4.908h5.285l-.708 14.722h-5.19c-.347-3.398-.93-5.097-1.747-5.097h-1.462V143.1h5.474c4.656 0 7.062-2.626 7.22-7.88l6.23.33-1.134 13.45h-33.93v-4.955c2.8 0 4.2-.724 4.2-2.17v-20.81c0-1.45-1.4-2.172-4.2-2.172v-4.955h33.93v10.618zm5.944-10.618h19.395c3.115 0 5.773.196 7.975.59 2.202.393 3.995 1.18 5.38 2.36 1.384 1.18 2.4 2.854 3.043 5.025.645 2.17.968 5.05.968 8.636 0 3.742-.323 6.81-.968 9.2-.644 2.392-1.66 4.27-3.043 5.64-1.385 1.368-3.178 2.312-5.38 2.83-2.202.52-4.86.78-7.975.78h-19.395v-4.955c2.8 0 4.2-.724 4.2-2.17v-20.81c0-1.45-1.4-2.172-4.2-2.172v-4.955zm16.14 29.163h4.01c1.038 0 1.856-.203 2.454-.612.598-.41 1.038-1.1 1.32-2.077.284-.974.465-2.256.544-3.845.08-1.588.118-3.547.118-5.875s-.04-4.207-.118-5.64c-.08-1.43-.26-2.53-.543-3.302-.283-.77-.723-1.282-1.32-1.534-.6-.252-1.417-.377-2.455-.377h-4.01V143.1z" id="BASED" fill="#24346D"/></g></g></g></svg>