<svg width="279" height="196" viewBox="0 0 279 196" version="1.1" xmlns="http://www.w3.org/2000/svg"><title>Group 2</title><g id="Page-1" stroke="none" stroke-width="1" fill="none" fill-rule="evenodd"><g id="Desktop"><g id="Standards-aligned"><g id="Group-2"><path d="M23.786 50.052c-2.133-2.495-5.147-3.743-9.043-3.743-3.215 0-5.557.64-7.025 1.92-1.47 1.28-2.203 3.005-2.203 5.176 0 1.102.185 2.018.556 2.747.372.73.952 1.353 1.74 1.872.79.518 1.786.956 2.99 1.312 1.207.357 2.66.73 4.36 1.118 1.763.39 3.363.82 4.8 1.29 1.438.47 2.66 1.06 3.664 1.773 1.005.713 1.778 1.588 2.32 2.625.54 1.037.81 2.317.81 3.84 0 1.524-.286 2.852-.858 3.987a7.903 7.903 0 0 1-2.41 2.844c-1.037.76-2.273 1.337-3.71 1.725-1.44.388-3.04.583-4.8.583-5.133 0-9.477-1.718-13.032-5.153l1.252-1.993c1.39 1.523 3.092 2.73 5.1 3.62 2.01.893 4.268 1.338 6.772 1.338 2.875 0 5.124-.55 6.747-1.653 1.624-1.102 2.435-2.77 2.435-5.007 0-1.134-.216-2.098-.65-2.892-.432-.794-1.073-1.483-1.924-2.066-.85-.584-1.924-1.086-3.223-1.507-1.298-.422-2.813-.827-4.544-1.216-1.764-.39-3.317-.802-4.662-1.24-1.345-.437-2.473-.988-3.385-1.652-.912-.665-1.6-1.467-2.064-2.407-.465-.94-.697-2.122-.697-3.548 0-1.556.286-2.933.858-4.132a8.652 8.652 0 0 1 2.39-3.04c1.02-.825 2.24-1.45 3.663-1.87 1.422-.422 3-.632 4.73-.632 2.134 0 4.035.332 5.704.996 1.67.664 3.185 1.676 4.545 3.038l-1.206 1.944zm32.08-3.5H43.81v32.28h-2.365V46.55H29.387v-2.236h26.48v2.236zm12.604-2.236h2.04L84.424 78.83H81.92l-4.592-11.374h-15.72L57.015 78.83h-2.55L68.47 44.317zm8.21 21.098L69.49 47.33l-7.327 18.084H76.68zm15.524-16.43V78.83h-2.366V44.317h1.81L114.74 74.7V44.315h2.365V78.83h-2.18L92.204 48.984zm33.89 29.847V44.317h10.943c2.597 0 4.877.453 6.84 1.36 1.964.908 3.595 2.14 4.893 3.696 1.3 1.555 2.272 3.378 2.922 5.47.65 2.09.974 4.317.974 6.683 0 2.625-.364 5-1.09 7.122-.727 2.122-1.77 3.937-3.13 5.444-1.36 1.508-3.007 2.675-4.94 3.5-1.932.828-4.088 1.24-6.47 1.24h-10.943zM150.3 61.526c0-2.172-.293-4.173-.88-6.004-.588-1.83-1.446-3.41-2.574-4.74a11.75 11.75 0 0 0-4.15-3.11c-1.64-.745-3.525-1.118-5.66-1.118h-8.578v30.043h8.58c2.163 0 4.073-.38 5.727-1.142 1.654-.762 3.037-1.823 4.15-3.185 1.113-1.36 1.956-2.957 2.527-4.788.572-1.83.858-3.816.858-5.955zm18.447-17.21h2.04L184.7 78.832h-2.504l-4.592-11.374h-15.72L157.29 78.83h-2.55l14.005-34.514zm8.208 21.1l-7.188-18.085-7.327 18.084h14.515zm13.16 13.416V44.317h13.68c1.392 0 2.675.308 3.85.923a9.892 9.892 0 0 1 3.037 2.454 11.83 11.83 0 0 1 1.994 3.452c.48 1.28.72 2.568.72 3.865 0 1.265-.186 2.488-.557 3.67a11.002 11.002 0 0 1-1.578 3.185c-.68.94-1.5 1.718-2.458 2.334a8.365 8.365 0 0 1-3.153 1.214l8.21 13.417h-2.737l-7.977-13.027H192.48V78.83h-2.365zm2.365-15.312h11.547c1.052 0 2.01-.243 2.876-.73a7.373 7.373 0 0 0 2.226-1.92 8.656 8.656 0 0 0 1.413-2.722c.325-1.02.487-2.066.487-3.135a8.92 8.92 0 0 0-.58-3.183 9.036 9.036 0 0 0-1.576-2.7 7.952 7.952 0 0 0-2.32-1.87 5.968 5.968 0 0 0-2.85-.705H192.48v16.966zm28.14 15.313V44.317h10.943c2.597 0 4.877.453 6.84 1.36 1.964.908 3.595 2.14 4.893 3.696 1.3 1.555 2.273 3.378 2.922 5.47.65 2.09.974 4.317.974 6.683 0 2.625-.364 5-1.09 7.122-.727 2.122-1.77 3.937-3.13 5.444-1.36 1.508-3.007 2.675-4.94 3.5-1.932.828-4.088 1.24-6.47 1.24H220.62zm24.207-17.305c0-2.172-.294-4.173-.882-6.004-.587-1.83-1.445-3.41-2.573-4.74a11.75 11.75 0 0 0-4.15-3.11c-1.64-.745-3.525-1.118-5.66-1.118h-8.578v30.043h8.58c2.164 0 4.073-.38 5.727-1.142 1.655-.762 3.038-1.823 4.15-3.185 1.114-1.36 1.957-2.957 2.53-4.788.57-1.83.857-3.816.857-5.955zm28.417-11.473c-2.134-2.495-5.148-3.743-9.043-3.743-3.215 0-5.557.64-7.025 1.92-1.47 1.28-2.203 3.005-2.203 5.176 0 1.102.186 2.018.557 2.747.37.73.95 1.353 1.738 1.872.788.518 1.785.956 2.99 1.312 1.206.357 2.66.73 4.36 1.118 1.762.39 3.362.82 4.8 1.29 1.437.47 2.66 1.06 3.663 1.773 1.006.713 1.78 1.588 2.32 2.625.54 1.037.812 2.317.812 3.84 0 1.524-.286 2.852-.858 3.987a7.903 7.903 0 0 1-2.412 2.844c-1.036.76-2.272 1.337-3.71 1.725-1.437.388-3.037.583-4.8.583-5.132 0-9.475-1.718-13.03-5.153l1.25-1.993c1.393 1.523 3.093 2.73 5.103 3.62 2.01.893 4.266 1.338 6.77 1.338 2.875 0 5.125-.55 6.748-1.653 1.623-1.102 2.434-2.77 2.434-5.007 0-1.134-.216-2.098-.65-2.892-.432-.794-1.073-1.483-1.923-2.066-.85-.584-1.925-1.086-3.223-1.507-1.298-.422-2.813-.827-4.544-1.216-1.762-.39-3.316-.802-4.66-1.24-1.346-.437-2.474-.988-3.386-1.652-.912-.665-1.6-1.467-2.064-2.407-.464-.94-.695-2.122-.695-3.548 0-1.556.287-2.933.858-4.132a8.652 8.652 0 0 1 2.39-3.04c1.02-.825 2.24-1.45 3.662-1.87 1.423-.422 3-.632 4.73-.632 2.134 0 4.035.332 5.705.996 1.67.664 3.184 1.676 4.544 3.038l-1.206 1.944z" id="Standards-Copy" fill="#24346D"/><path d="M1.656 146.416c1.47 0 2.497-.125 3.085-.373.59-.248.98-.603 1.176-1.066l9.697-30.22h12.635l9.01 30.17c.392.992 1.698 1.49 3.918 1.49v5.21H19.824v-5.21h3.232c.947 0 1.42-.283 1.42-.845 0-.1-.016-.2-.048-.298a4.816 4.816 0 0 1-.098-.347l-.735-2.63h-11.46l-.685 2.233a2.045 2.045 0 0 0-.147.695c0 .794.735 1.19 2.204 1.19h2.595v5.21H1.705l-.05-5.21zm11.998-9.18h8.57l-4.016-14.886-4.554 14.886zm31.146 9.18c2.906 0 4.358-.76 4.358-2.283V122.25c0-1.52-1.452-2.282-4.358-2.282v-5.21h22.184v5.21c-3.624 0-5.436.76-5.436 2.282v23.173h7.15c1.698 0 3.02-.653 3.967-1.96.947-1.307 1.55-3.415 1.812-6.326l5.485.347-1.176 14.142H44.8v-5.21zm60.43-26.448c-2.904 0-4.357.76-4.357 2.282v21.883c0 1.522 1.453 2.283 4.358 2.283v5.21H84.076v-5.21c2.94 0 4.408-.76 4.408-2.283V122.25c0-1.52-1.47-2.282-4.408-2.282v-5.21h21.156v5.21zm4.164 12.95c0-3.406.48-6.31 1.445-8.708.962-2.398 2.235-4.358 3.818-5.88a14.513 14.513 0 0 1 5.436-3.324 19.396 19.396 0 0 1 6.293-1.042c4.67 0 8.162.893 10.48 2.68l.98-1.886h5.974v12.058l-6.316.496c-.653-4.764-3.02-7.146-7.1-7.146-1.536 0-2.833.24-3.894.72-1.062.48-1.92 1.24-2.57 2.282-.654 1.042-1.12 2.366-1.397 3.97-.278 1.604-.416 3.53-.416 5.78 0 2.88.17 5.145.514 6.8.344 1.653.85 2.902 1.52 3.745.668.844 1.476 1.373 2.423 1.588.947.216 2.008.323 3.183.323.85 0 1.673-.066 2.473-.198.8-.132 1.51-.356 2.13-.67.62-.314 1.118-.72 1.493-1.216.376-.497.563-1.092.563-1.787v-2.183c0-1.522-1.47-2.283-4.407-2.283v-5.21h17.237v5.21c-2.938 0-4.407.76-4.407 2.283v12.306h-7.2l-.98-2.53c-.26.396-.668.785-1.223 1.165-.555.382-1.265.737-2.13 1.068-.866.33-1.91.595-3.135.794-1.224.198-2.62.298-4.187.298-1.96 0-3.926-.306-5.9-.918-1.976-.612-3.755-1.67-5.34-3.176-1.582-1.505-2.872-3.507-3.867-6.004-.996-2.498-1.494-5.632-1.494-9.403zm85.015-12.95c-2.907 0-4.36.76-4.36 2.282v29.376H175.41l-12.243-25.803v18.31c0 1.522 1.453 2.283 4.358 2.283v5.21H152.44v-5.21c2.906 0 4.36-.76 4.36-2.283V122.25c0-1.52-1.454-2.282-4.36-2.282v-5.21h18.658l12.586 26.497V122.25c0-1.52-1.453-2.282-4.358-2.282v-5.21h15.083v5.21zm38.295 5.954l-6.366.248c0-3.473-1.552-5.21-4.654-5.21h-7.443v8.833h1.86c1.11 0 1.813-1.72 2.106-5.16h5.484l-.734 15.48h-5.387c-.36-3.572-.963-5.358-1.812-5.358h-1.517v10.668h5.68c4.832 0 7.33-2.762 7.493-8.286l6.464.347-1.175 14.142h-35.21v-5.21c2.905 0 4.358-.76 4.358-2.283V122.25c0-1.52-1.453-2.282-4.36-2.282v-5.21h35.212v11.164zm5.24-11.164h20.127c3.233 0 5.99.207 8.277.62 2.284.414 4.145 1.24 5.58 2.48 1.438 1.242 2.49 3.003 3.16 5.286.67 2.282 1.004 5.31 1.004 9.08 0 3.937-.335 7.162-1.004 9.676-.67 2.514-1.722 4.49-3.16 5.93-1.435 1.44-3.296 2.43-5.58 2.977-2.287.546-5.045.82-8.278.82h-20.127v-5.21c2.906 0 4.36-.762 4.36-2.284V122.25c0-1.52-1.454-2.282-4.36-2.282v-5.21zm16.748 30.665h4.163c1.077 0 1.926-.215 2.547-.645.62-.43 1.077-1.158 1.37-2.183.295-1.026.482-2.374.564-4.044.082-1.67.122-3.73.122-6.177 0-2.448-.04-4.424-.123-5.93-.082-1.505-.27-2.663-.563-3.473-.294-.81-.75-1.348-1.37-1.613-.622-.264-1.47-.397-2.548-.397h-4.163v24.463z" id="Aligned-Copy" fill="#9D0D2B"/><path id="Fill-671" fill="#9D0D2B" d="M271.316 35.803l-1.694-3.186-3.788-.51 2.74-2.477-.647-3.5 3.39 1.65 3.39-1.65-.65 3.5 2.745 2.478-3.79.51-1.696 3.185"/><path id="Fill-672" fill="#9D0D2B" d="M259.236 35.803l-1.695-3.186-3.79-.51 2.743-2.477-.646-3.5 3.39 1.65 3.388-1.65-.647 3.5 2.742 2.478-3.79.51-1.694 3.185"/><path id="Fill-673" fill="#9D0D2B" d="M246.05 35.803l-1.693-3.186-3.79-.51 2.745-2.477-.65-3.5 3.39 1.65 3.39-1.65-.65 3.5 2.744 2.478-3.79.51-1.695 3.185"/><path id="Fill-674" fill="#9D0D2B" d="M233.97 35.803l-1.695-3.186-3.79-.51 2.743-2.477-.648-3.5 3.39 1.65 3.39-1.65-.65 3.5 2.743 2.478-3.79.51-1.694 3.185"/><path id="Fill-675" fill="#9D0D2B" d="M220.787 35.803l-1.696-3.186-3.787-.51 2.742-2.477-.648-3.5 3.39 1.65 3.39-1.65-.65 3.5 2.743 2.478-3.79.51-1.693 3.185"/><path id="Fill-676" fill="#9D0D2B" d="M208.705 35.803l-1.695-3.186-3.79-.51 2.743-2.477-.648-3.5 3.39 1.65 3.388-1.65-.648 3.5 2.744 2.478-3.79.51-1.695 3.185"/><path id="Fill-677" fill="#9D0D2B" d="M195.523 35.803l-1.697-3.186-3.788-.51 2.743-2.477-.648-3.5 3.39 1.65 3.39-1.65-.65 3.5 2.744 2.478-3.79.51-1.693 3.185"/><path id="Fill-678" fill="#9D0D2B" d="M183.44 35.803l-1.694-3.186-3.79-.51 2.742-2.477-.646-3.5 3.39 1.65 3.387-1.65-.648 3.5 2.743 2.478-3.79.51-1.694 3.185"/><path id="Fill-679" fill="#9D0D2B" d="M170.258 35.803l-1.695-3.186-3.79-.51 2.744-2.477-.65-3.5 3.39 1.65 3.39-1.65-.65 3.5 2.743 2.478-3.79.51-1.692 3.185"/><path id="Fill-680" fill="#9D0D2B" d="M158.173 35.803l-1.695-3.186-3.788-.51 2.74-2.477-.647-3.5 3.39 1.65 3.39-1.65-.65 3.5 2.745 2.478-3.79.51-1.695 3.185"/><path id="Fill-681" fill="#9D0D2B" d="M146.09 35.803l-1.696-3.186-3.788-.51 2.742-2.477-.648-3.5 3.39 1.65 3.39-1.65-.65 3.5 2.743 2.478-3.788.51-1.694 3.185"/><path id="Fill-682" fill="#9D0D2B" d="M132.907 35.803l-1.695-3.186-3.788-.51 2.74-2.477-.646-3.5 3.39 1.65 3.39-1.65-.65 3.5 2.744 2.478-3.79.51-1.695 3.185"/><path id="Fill-683" fill="#9D0D2B" d="M120.826 35.803l-1.696-3.186-3.79-.51 2.744-2.477-.647-3.5 3.39 1.65 3.388-1.65-.647 3.5 2.74 2.478-3.788.51-1.694 3.185"/><path id="Fill-684" fill="#9D0D2B" d="M107.642 35.803l-1.695-3.186-3.788-.51 2.74-2.477-.646-3.5 3.388 1.65 3.39-1.65-.648 3.5 2.742 2.478-3.79.51-1.694 3.185"/><path id="Fill-685" fill="#9D0D2B" d="M95.562 35.803l-1.696-3.186-3.79-.51 2.743-2.477-.648-3.5 3.39 1.65 3.388-1.65-.648 3.5 2.744 2.478-3.792.51-1.692 3.185"/><path id="Fill-686" fill="#9D0D2B" d="M82.377 35.803l-1.695-3.186-3.788-.51 2.742-2.477-.648-3.5 3.39 1.65 3.39-1.65-.65 3.5 2.743 2.478-3.787.51-1.696 3.185"/><path id="Fill-687" fill="#9D0D2B" d="M70.295 35.803l-1.697-3.186-3.787-.51 2.742-2.477-.645-3.5 3.388 1.65 3.39-1.65-.648 3.5 2.743 2.478-3.79.51-1.695 3.185"/><path id="Fill-688" fill="#9D0D2B" d="M57.11 35.803l-1.692-3.186-3.79-.51 2.744-2.477-.648-3.5 3.387 1.65 3.392-1.65-.65 3.5 2.744 2.478-3.79.51-1.695 3.185"/><path id="Fill-689" fill="#9D0D2B" d="M45.03 35.803l-1.697-3.186-3.788-.51 2.74-2.477-.645-3.5 3.39 1.65 3.39-1.65-.65 3.5 2.744 2.478-3.79.51-1.694 3.185"/><path id="Fill-690" fill="#9D0D2B" d="M31.848 35.803l-1.697-3.186-3.786-.51 2.74-2.477-.646-3.5 3.39 1.65 3.388-1.65-.647 3.5 2.742 2.478-3.79.51-1.694 3.185"/><path id="Fill-691" fill="#9D0D2B" d="M19.765 35.803l-1.697-3.186-3.788-.51 2.742-2.477-.646-3.5 3.39 1.65 3.388-1.65-.648 3.5 2.744 2.478-3.79.51-1.695 3.185"/><path id="Fill-692" fill="#9D0D2B" d="M6.583 35.803l-1.697-3.186-3.788-.51L3.84 29.63l-.647-3.5 3.39 1.65 3.39-1.65-.65 3.5 2.743 2.478-3.79.51-1.693 3.185"/><path id="Fill-693" fill="#24346D" d="M2.197 17.022h274.268v-4.05H2.197z"/><path id="Fill-713" fill="#9D0D2B" d="M0 8.713h279V.753H0z"/><path id="Fill-671-Copy" fill="#9D0D2B" d="M271.236 160.69l-1.694 3.185-3.788.51 2.742 2.478-.65 3.5 3.39-1.652 3.39 1.653-.648-3.5 2.744-2.48-3.79-.508-1.696-3.185"/><path id="Fill-672-Copy" fill="#9D0D2B" d="M259.65 160.69l-1.696 3.185-3.79.51 2.742 2.478-.646 3.5 3.39-1.652 3.388 1.653-.647-3.5 2.743-2.48-3.79-.508-1.694-3.185"/><path id="Fill-673-Copy" fill="#9D0D2B" d="M246.4 160.69l-1.694 3.185-3.79.51 2.745 2.478-.648 3.5 3.387-1.652 3.39 1.653-.65-3.5 2.744-2.48-3.788-.508-1.697-3.185"/><path id="Fill-674-Copy" fill="#9D0D2B" d="M233.982 160.69l-1.694 3.185-3.79.51 2.743 2.478-.647 3.5 3.39-1.652 3.39 1.653-.65-3.5 2.744-2.48-3.79-.508-1.695-3.185"/><path id="Fill-675-Copy" fill="#9D0D2B" d="M220.736 160.69l-1.696 3.185-3.788.51 2.742 2.478-.648 3.5 3.39-1.652 3.39 1.653-.65-3.5 2.744-2.48-3.79-.508-1.694-3.185"/><path id="Fill-676-Copy" fill="#9D0D2B" d="M209.146 160.69l-1.695 3.185-3.788.51 2.743 2.478-.648 3.5 3.39-1.652 3.388 1.653-.648-3.5 2.744-2.48-3.79-.508-1.694-3.185"/><path id="Fill-677-Copy" fill="#9D0D2B" d="M195.9 160.69l-1.697 3.185-3.788.51 2.743 2.478-.65 3.5 3.392-1.652 3.39 1.653-.65-3.5 2.744-2.48-3.79-.508-1.694-3.185"/><path id="Fill-678-Copy" fill="#9D0D2B" d="M183.483 160.69l-1.695 3.185-3.79.51 2.742 2.478-.646 3.5 3.39-1.652 3.388 1.653-.647-3.5 2.743-2.48-3.79-.508-1.695-3.185"/><path id="Fill-679-Copy" fill="#9D0D2B" d="M170.235 160.69l-1.694 3.185-3.79.51 2.745 2.478-.65 3.5 3.39-1.652 3.39 1.653-.65-3.5 2.743-2.48-3.79-.508-1.693-3.185"/><path id="Fill-680-Copy" fill="#9D0D2B" d="M158.644 160.69l-1.695 3.185-3.79.51 2.74 2.478-.646 3.5 3.39-1.652 3.39 1.653-.65-3.5 2.745-2.48-3.79-.508-1.696-3.185"/><path id="Fill-681-Copy" fill="#9D0D2B" d="M146.227 160.69l-1.698 3.185-3.788.51 2.742 2.478-.648 3.5 3.39-1.652 3.388 1.653-.648-3.5 2.743-2.48-3.79-.508-1.693-3.185"/><path id="Fill-682-Copy" fill="#9D0D2B" d="M132.978 160.69l-1.695 3.185-3.787.51 2.74 2.478-.647 3.5 3.388-1.652 3.39 1.653-.648-3.5 2.743-2.48-3.79-.508-1.695-3.185"/><path id="Fill-683-Copy" fill="#9D0D2B" d="M121.39 160.69l-1.696 3.185-3.79.51 2.744 2.478-.647 3.5 3.39-1.652 3.39 1.653-.648-3.5 2.74-2.48-3.788-.508-1.694-3.185"/><path id="Fill-684-Copy" fill="#9D0D2B" d="M108.14 160.69l-1.694 3.185-3.787.51 2.738 2.478-.644 3.5 3.387-1.652 3.39 1.653-.647-3.5 2.743-2.48-3.79-.508-1.695-3.185"/><path id="Fill-685-Copy" fill="#9D0D2B" d="M95.726 160.69l-1.696 3.185-3.79.51 2.743 2.478-.647 3.5 3.39-1.652 3.39 1.653-.65-3.5 2.745-2.48-3.79-.508-1.694-3.185"/><path id="Fill-686-Copy" fill="#9D0D2B" d="M82.477 160.69l-1.695 3.185-3.788.51 2.742 2.478-.648 3.5 3.39-1.652 3.39 1.653-.65-3.5 2.743-2.48-3.787-.508-1.696-3.185"/><path id="Fill-687-Copy" fill="#9D0D2B" d="M70.888 160.69l-1.697 3.185-3.786.51 2.74 2.478-.645 3.5 3.388-1.652 3.39 1.653-.648-3.5 2.743-2.48-3.79-.508-1.695-3.185"/><path id="Fill-688-Copy" fill="#9D0D2B" d="M57.64 160.69l-1.694 3.185-3.79.51 2.744 2.478-.648 3.5 3.388-1.652 3.39 1.653-.648-3.5 2.743-2.48-3.79-.508-1.695-3.185"/><path id="Fill-689-Copy" fill="#9D0D2B" d="M45.224 160.69l-1.698 3.185-3.787.51 2.74 2.478-.646 3.5 3.39-1.652 3.388 1.653-.648-3.5 2.743-2.48-3.79-.508-1.693-3.185"/><path id="Fill-690-Copy" fill="#9D0D2B" d="M31.977 160.69l-1.697 3.185-3.787.51 2.74 2.478-.646 3.5 3.39-1.652 3.388 1.653-.647-3.5 2.743-2.48-3.79-.508-1.693-3.185"/><path id="Fill-691-Copy" fill="#9D0D2B" d="M20.387 160.69l-1.697 3.185-3.788.51 2.742 2.478-.646 3.5 3.39-1.652 3.388 1.653-.648-3.5 2.744-2.48-3.79-.508-1.695-3.185"/><path id="Fill-692-Copy" fill="#9D0D2B" d="M7.14 160.69l-1.697 3.185-3.787.51 2.742 2.478-.647 3.5 3.39-1.652 3.39 1.653-.65-3.5 2.743-2.48-3.79-.508-1.692-3.185"/><path id="Fill-693-Copy" fill="#24346D" d="M2.484 179.544H276.75v4.05H2.485z"/><path id="Fill-713-Copy" fill="#9D0D2B" d="M0 187.73h279v7.96H0z"/><path id="Fill-239" fill="#24346D" d="M98.52 99.344h26.402v-1.758H98.52z"/><path d="M124.922 97.638v.878h-25.93v-.878h25.93zM98.52 99.394h26.874V96.76H98.52v2.634z" id="Fill-240" fill="#24346D"/><path id="Fill-241" fill="#24346D" d="M153.988 99.344h26.403v-1.758H153.99z"/><path d="M180.39 97.638v.878h-25.928v-.878h25.93zm-26.402 1.756h26.876V96.76h-26.876v2.634z" id="Fill-242" fill="#24346D"/><path id="Fill-243" fill="#24346D" d="M152.14 91.904h-9.357l-2.964-7.55-2.965 7.55h-9.36l7.454 4.858-3.35 8.526 8.22-5.353 8.216 5.353-3.347-8.526z"/></g></g></g></g></svg>