<svg width="308" height="281" viewBox="0 0 308 281" version="1.1" xmlns="http://www.w3.org/2000/svg" xmlns:xlink="http://www.w3.org/1999/xlink"><title>Group 4</title><defs><path d="M15.36 18.824c0-1.053.66-2.108 1.987-2.912 1.325-.805 3.062-1.206 4.798-1.206H232.5c1.737 0 3.472.4 4.797 1.206 1.326.804 1.99 1.86 1.99 2.912v186.283l-111.965 41.34-111.962-41.34V18.824z" id="path-1"/><linearGradient x1="50%" y1="0%" x2="50%" y2="100%" id="linearGradient-3"><stop stop-color="#5681B3" offset="0%"/><stop stop-color="#314C83" offset="100%"/></linearGradient></defs><g id="Page-1" stroke="none" stroke-width="1" fill="none" fill-rule="evenodd"><g id="Desktop"><g id="Group-4"><g id="Group" transform="translate(27)"><path d="M254.778 205.408c0 4.135-3.844 9.028-8.54 10.876l-110.303 43.39c-4.702 1.847-12.39 1.847-17.093 0L8.546 216.285C3.844 214.436 0 209.544 0 205.408V7.516C0 3.383 4.298 0 9.554 0h235.67c5.26 0 9.554 3.383 9.554 7.516v197.892" id="Fill-57" fill="#24346D"/><path d="M127.267 250.99a6.52 6.52 0 0 1-.68-.034l-115.433-43.05c-.688-.53-1.453-1.7-1.453-2.268V14.648c0-1.056.657-2.11 1.97-2.914 1.312-.804 3.03-1.207 4.75-1.207h221.697c1.718 0 3.437.403 4.75 1.207 1.312.805 1.967 1.858 1.967 2.913v190.99c0 .57-.765 1.74-1.453 2.27l-115.434 43.05a6.5 6.5 0 0 1-.68.032" id="Fill-58" fill="#FFF"/><mask id="mask-2" fill="#fff"><use xlink:href="#path-1"/></mask><use id="Fill-59" fill-opacity=".8" fill="#24346D" xlink:href="#path-1"/><g id="Group-2" style="mix-blend-mode:multiply" mask="url(#mask-2)"><g id="Layer_8_14_"><path d="M196.566 23.693H56.82a3.465 3.465 0 0 0-3.466 3.465v96.462a3.464 3.464 0 0 0 3.466 3.462h52.55v8.313c0 .123.024.234.036.353h-7.54a3.178 3.178 0 0 0 0 6.355h51.394a3.178 3.178 0 0 0 0-6.355h-7.54c.01-.115.036-.23.036-.353v-8.313h50.817a3.465 3.465 0 0 0 3.466-3.462V27.158a3.474 3.474 0 0 0-3.474-3.465z" id="Shape" stroke="#444B64" stroke-width="3" fill="#FFF"/><path d="M133.58 88.07H13.463A3.465 3.465 0 0 1 10 84.606v-73.14A3.466 3.466 0 0 1 13.464 8H133.58a3.465 3.465 0 0 1 3.463 3.465v73.14a3.465 3.465 0 0 1-3.464 3.466z" id="Path" fill="url(#linearGradient-3)" transform="translate(53.354 23.484)"/><path id="Fill-476" fill="#FFF" d="M138.86 72.19l18.415-12.017H134.14l-7.328-18.69-7.32 18.69H96.354l18.42 12.017-8.277 21.1 20.315-13.252 20.32 13.25-8.27-21.098"/></g><g id="Capa_1"><path d="M224.468 105.646V83.713h-.584v-6.288a2.114 2.114 0 0 0-2.112-2.114h-42.59a2.114 2.114 0 0 0-2.11 2.115v75.73c0 1.168.946 2.115 2.11 2.115h42.59a2.113 2.113 0 0 0 2.11-2.114V141.32h.586v-6.872h-.585v-28.802h.585z" id="Shape" stroke="#444B64" stroke-width="3" fill="#FFF"/><path d="M43.865 67.566a2.113 2.113 0 0 1-2.11 2.114H5.142a2.113 2.113 0 0 1-2.112-2.114V7.614c0-1.167.947-2.114 2.113-2.114h36.61c1.167 0 2.112.947 2.112 2.114v59.952z" id="Path" fill="url(#linearGradient-3)" transform="translate(177.04 75.31)"/><path id="Fill-476" fill="#FFF" d="M215.615 98.69h-11.61l-3.68-9.38-3.672 9.38H185.04l9.244 6.03-4.153 10.59 10.196-6.65 10.198 6.65-4.15-10.59z"/></g><g id="Capa_1"><path d="M68.525 110.542h-.366V106.6c0-.732-.594-1.326-1.325-1.326H40.147c-.73 0-1.324.594-1.324 1.325v47.48c0 .733.593 1.327 1.324 1.327h26.688c.73 0 1.324-.594 1.324-1.326v-7.42h.365v-4.308h-.366v-18.06h.365v-13.75z" id="Shape" stroke="#444B64" stroke-width="3" fill="#FFF"/><path d="M27.49 42.363c0 .732-.593 1.325-1.324 1.325H3.223c-.73 0-1.324-.593-1.324-1.325V4.773c0-.73.592-1.325 1.323-1.325h22.943c.73 0 1.323.594 1.323 1.326v37.59z" id="Path" fill="url(#linearGradient-3)" transform="translate(38.803 105.274)"/><path id="Fill-476" fill="#FFF" d="M57.11 124.165l5.332-3.48h-6.698l-2.122-5.41-2.12 5.41h-6.7l5.334 3.48-2.396 6.11 5.882-3.838 5.883 3.837-2.394-6.11"/></g></g></g><path d="M107.312 137.903c-3.038.373-4.46 1.336-4.27 2.888l1.796 14.63c.298 2.43.333 4.67.106 6.718-.228 2.05-.847 3.847-1.856 5.392-1.01 1.546-2.48 2.83-4.408 3.856-1.93 1.024-4.464 1.73-7.602 2.115-3.206.394-5.962.34-8.268-.166-2.305-.505-4.227-1.373-5.766-2.606-1.54-1.233-2.734-2.807-3.586-4.724-.852-1.916-1.427-4.09-1.725-6.52l-1.797-14.628c-.19-1.553-1.787-2.144-4.79-1.776l-.653-5.315 22.424-2.753.653 5.315c-1.924.236-3.233.594-3.928 1.073-.694.48-.994 1.107-.9 1.883l1.797 14.63c.207 1.687.475 3.11.806 4.268.33 1.16.795 2.08 1.392 2.76a4.232 4.232 0 0 0 2.22 1.345c.884.217 1.983.244 3.3.083 1.316-.162 2.41-.46 3.28-.89a4.773 4.773 0 0 0 2.033-1.87c.483-.812.78-1.825.887-3.037.108-1.21.058-2.66-.15-4.348l-1.795-14.63c-.096-.775-.547-1.31-1.354-1.606-.807-.295-2.172-.324-4.095-.088l-.653-5.315 16.25-1.995.652 5.315zm37.966 2.275l-5.665 1.158c-.397-1.287-.97-2.33-1.72-3.13-.75-.797-1.636-1.4-2.662-1.804-1.025-.405-2.185-.648-3.48-.73a22.375 22.375 0 0 0-4.118.147c-.776.094-1.497.226-2.16.393-.666.167-1.238.392-1.717.673a2.97 2.97 0 0 0-1.1 1.086c-.254.442-.344.967-.27 1.574.117.945.728 1.598 1.834 1.96 1.105.36 2.49.61 4.15.748 1.662.14 3.5.255 5.516.35 2.015.096 3.99.35 5.925.763 2.78.584 4.962 1.695 6.55 3.332 1.59 1.637 2.57 3.974 2.943 7.01.244 1.993.098 3.8-.44 5.425a11.308 11.308 0 0 1-2.532 4.267c-1.15 1.22-2.562 2.216-4.23 2.986-1.67.77-3.518 1.28-5.543 1.53-2.06.25-3.78.326-5.162.22-1.383-.103-2.543-.27-3.478-.496a43.724 43.724 0 0 1-2.365-.635c-.64-.195-1.23-.26-1.77-.194-.473.058-.87.244-1.19.558-.322.314-.577.825-.764 1.533l-5.72.702-1.585-12.908 5.683-1.006c.526 2.61 1.94 4.353 4.24 5.236 2.3.882 5.222 1.105 8.766.67 2.025-.248 3.603-.716 4.735-1.403 1.13-.687 1.602-1.807 1.41-3.36-.115-.944-.65-1.606-1.604-1.986-.955-.38-2.16-.634-3.614-.764a72.276 72.276 0 0 0-4.862-.25 43.03 43.03 0 0 1-5.347-.45c-1.955-.307-3.604-.764-4.946-1.37-1.342-.606-2.446-1.37-3.313-2.29-.866-.922-1.53-2.013-1.994-3.275-.463-1.262-.794-2.703-.993-4.323a11.893 11.893 0 0 1 .24-4.32 9.418 9.418 0 0 1 1.9-3.78c.924-1.123 2.143-2.07 3.66-2.837 1.515-.77 3.37-1.288 5.563-1.557 1.957-.24 3.6-.313 4.93-.22 1.332.094 2.447.25 3.347.464.9.215 1.643.414 2.23.6.59.184 1.12.247 1.592.19.675-.084 1.19-.275 1.548-.576.357-.3.7-.78 1.03-1.437l5.063-.62 1.492 12.148zm43.563-6.12l-6.548 1.062c-.436-3.544-2.256-5.12-5.462-4.725l-7.694.945 1.106 9.01 1.924-.236c1.147-.14 1.657-1.985 1.53-5.532l5.67-.696 1.18 15.887-5.57.683c-.818-3.6-1.666-5.344-2.543-5.237l-1.57.192 1.337 10.883 5.872-.72c4.994-.614 7.23-3.75 6.707-9.405l6.724-.466.557 14.576-36.395 4.468-.653-5.315c3.004-.368 4.41-1.33 4.22-2.88l-2.74-22.325c-.192-1.552-1.79-2.144-4.792-1.775l-.653-5.315 36.396-4.47 1.398 11.39zm45.757 21.358c-1.89.233-3.532.186-4.925-.14-1.393-.326-2.57-.85-3.532-1.57a7.386 7.386 0 0 1-2.23-2.68 10.77 10.77 0 0 1-1.018-3.473l-.342-2.784c-.145-1.182-.322-2.136-.53-2.864-.21-.728-.483-1.277-.82-1.647-.337-.37-.775-.59-1.314-.662-.54-.07-1.215-.056-2.025.043l-3.998.492 1.175 9.568c.19 1.552 2.16 2.098 5.905 1.638l.652 5.315-22.93 2.816-.653-5.316c3.004-.37 4.41-1.33 4.22-2.882l-2.74-22.323c-.19-1.554-1.788-2.145-4.792-1.777l-.652-5.315 26.373-3.238a35.7 35.7 0 0 1 4.898-.268c1.614.025 3.077.3 4.392.823a7.827 7.827 0 0 1 3.312 2.496c.894 1.142 1.465 2.725 1.714 4.75.16 1.315.1 2.496-.182 3.54-.283 1.047-.71 1.964-1.28 2.753a8.31 8.31 0 0 1-2.042 1.998c-.79.543-1.628.972-2.514 1.286 1.88.25 3.39.954 4.525 2.116 1.136 1.163 1.863 3.043 2.182 5.642l.43 3.492c.09.743.31 1.272.657 1.59.347.317.757.446 1.23.388.506-.062.89-.29 1.15-.68.26-.392.344-.96.253-1.702l-.3-2.43 3.696-.453.287 2.327a9.217 9.217 0 0 1-.146 3.204 6.438 6.438 0 0 1-1.358 2.737c-.673.802-1.557 1.484-2.652 2.047-1.096.563-2.454.944-4.073 1.142zM213.24 135.07l4.607-.565c.91-.112 1.652-.29 2.222-.53.57-.24 1.007-.578 1.314-1.01.306-.43.487-.984.54-1.658.055-.675.022-1.502-.098-2.48-.14-1.148-.57-2.003-1.29-2.565-.72-.563-1.975-.734-3.764-.514l-4.606.565 1.075 8.757z" id="USER-Copy" fill="#FFF"/><g id="Group-3"><path id="Fill-73" fill="#850B24" d="M236.052 201.11l71.867 2.71v71.56l-71.868-12.467V201.11"/><path id="Fill-74" fill="#510716" d="M236.052 201.753l47.413-23.318-6.976 76.44-40.438 8.68v-61.802"/><path id="Fill-75" fill="#9D0D2B" d="M276.46 254.874l-65.468-12.98V180.09l72.446-1.655-6.977 76.44"/><path id="Fill-76" fill="#510716" d="M210.992 241.726v-61.803l59.13-18.77-6.696 62.14z"/><path id="Fill-77" fill="#850B24" d="M46.328 270.778L0 280.972v-53.48l52.43-17.475-6.102 60.76"/><path id="Fill-78" fill="#510716" d="M45.845 270.913l-33.72-9.034v-53.482l39.824 1.755-6.105 60.76"/><path id="Fill-79" fill="#9D0D2B" d="M79.563 248.914l-67.437 12.9v-53.482l73.54-20.18-6.103 60.762"/><path id="Fill-80" fill="#510716" d="M79.508 248.914l-31.004-5.846v-53.48l37.105-1.435-6.102 60.76"/><path id="Fill-81" fill="#B81032" d="M48.504 243.094v-53.48l221.422-30.198-6.394 63.876z"/><path d="M71.945 224.22l-3.224-26.253 17.202-2.112.28 2.293-14.615 1.795 1.185 9.65L85.1 208.08l.263 2.144-12.328 1.514 1.493 12.164-2.583.317zm22.44-2.756l-3.224-26.252 11.075-1.36c1.132-.14 2.2-.026 3.207.338a8.282 8.282 0 0 1 2.686 1.585 8.715 8.715 0 0 1 1.93 2.446c.503.94.816 1.915.94 2.926.118.96.09 1.897-.086 2.807a8.586 8.586 0 0 1-.89 2.51 7.205 7.205 0 0 1-1.61 2 6.503 6.503 0 0 1-2.28 1.275l7.668 9.342-2.916.358-7.354-8.93-7.75.952 1.19 9.687-2.585.317zm1.113-12.297l8.563-1.05a4.414 4.414 0 0 0 2.025-.757 5.014 5.014 0 0 0 1.44-1.546 6.62 6.62 0 0 0 .797-2.05c.16-.745.19-1.512.093-2.3a6.262 6.262 0 0 0-.704-2.223 6.327 6.327 0 0 0-1.377-1.762 5.503 5.503 0 0 0-1.857-1.086 4.622 4.622 0 0 0-2.107-.23l-8.343 1.025 1.47 11.98zm23.69 9.252l-3.224-26.253 2.584-.318 3.223 26.252-2.583.317zm27.178-5.665l.28 2.292-17.605 2.162-3.223-26.253 17.275-2.12.28 2.29-14.69 1.805 1.163 9.466 12.808-1.573.268 2.18-12.807 1.574 1.23 10.02 15.023-1.845zm5.803-20.155l2.633 21.446-2.584.317-3.225-26.252 1.994-.244 20.03 19.722-2.68-21.815 2.585-.317 3.22 26.215-2.253.277L152.17 192.6zm29.244 18.178l-3.224-26.252 8.896-1.092c2.09-.257 3.96-.136 5.608.362 1.647.5 3.067 1.275 4.258 2.33 1.19 1.055 2.148 2.345 2.873 3.87.724 1.525 1.197 3.187 1.418 4.986.245 1.997.17 3.84-.22 5.526-.393 1.687-1.067 3.17-2.02 4.45-.955 1.282-2.163 2.33-3.624 3.15-1.46.816-3.152 1.342-5.07 1.578l-8.896 1.092zm17.245-15.48c-.195-1.576-.594-2.997-1.2-4.262-.604-1.264-1.39-2.325-2.357-3.182A8.744 8.744 0 0 0 191.71 186c-1.296-.38-2.743-.47-4.343-.274l-6.312.775 2.66 21.67 6.313-.776c1.624-.2 3.023-.653 4.198-1.36 1.174-.707 2.12-1.6 2.837-2.676.717-1.076 1.21-2.3 1.48-3.672.267-1.37.307-2.834.116-4.387zm9.844 12.154L205.28 181.2l2.585-.317 2.942 23.96 15.133-1.86.282 2.294-17.718 2.175zm14.677-28.45l10.3 13.073 6.902-15.185 2.805-.344-8.126 17.737 1.2 9.76-2.584.318-1.208-9.834-12.13-15.175 2.843-.348z" id="FRIENDLY" fill="#FFF"/></g></g></g></g></svg>